<svg xmlns="http://www.w3.org/2000/svg" viewBox="0 0 800 140" role="img">
  <title>Tachycardie ventriculaire</title>
  <desc>QRS larges réguliers ~160/min · dissociation AV possible</desc>
  <rect width="800" height="140" fill="#fff"/>
  <line x1="0" y1="0" x2="0" y2="140" stroke="#fde8e8" stroke-width="1"/>
<line x1="10" y1="0" x2="10" y2="140" stroke="#fef5f5" stroke-width="1"/>
<line x1="20" y1="0" x2="20" y2="140" stroke="#fef5f5" stroke-width="1"/>
<line x1="30" y1="0" x2="30" y2="140" stroke="#fef5f5" stroke-width="1"/>
<line x1="40" y1="0" x2="40" y2="140" stroke="#fef5f5" stroke-width="1"/>
<line x1="50" y1="0" x2="50" y2="140" stroke="#fde8e8" stroke-width="1"/>
<line x1="60" y1="0" x2="60" y2="140" stroke="#fef5f5" stroke-width="1"/>
<line x1="70" y1="0" x2="70" y2="140" stroke="#fef5f5" stroke-width="1"/>
<line x1="80" y1="0" x2="80" y2="140" stroke="#fef5f5" stroke-width="1"/>
<line x1="90" y1="0" x2="90" y2="140" stroke="#fef5f5" stroke-width="1"/>
<line x1="100" y1="0" x2="100" y2="140" stroke="#fde8e8" stroke-width="1"/>
<line x1="110" y1="0" x2="110" y2="140" stroke="#fef5f5" stroke-width="1"/>
<line x1="120" y1="0" x2="120" y2="140" stroke="#fef5f5" stroke-width="1"/>
<line x1="130" y1="0" x2="130" y2="140" stroke="#fef5f5" stroke-width="1"/>
<line x1="140" y1="0" x2="140" y2="140" stroke="#fef5f5" stroke-width="1"/>
<line x1="150" y1="0" x2="150" y2="140" stroke="#fde8e8" stroke-width="1"/>
<line x1="160" y1="0" x2="160" y2="140" stroke="#fef5f5" stroke-width="1"/>
<line x1="170" y1="0" x2="170" y2="140" stroke="#fef5f5" stroke-width="1"/>
<line x1="180" y1="0" x2="180" y2="140" stroke="#fef5f5" stroke-width="1"/>
<line x1="190" y1="0" x2="190" y2="140" stroke="#fef5f5" stroke-width="1"/>
<line x1="200" y1="0" x2="200" y2="140" stroke="#fde8e8" stroke-width="1"/>
<line x1="210" y1="0" x2="210" y2="140" stroke="#fef5f5" stroke-width="1"/>
<line x1="220" y1="0" x2="220" y2="140" stroke="#fef5f5" stroke-width="1"/>
<line x1="230" y1="0" x2="230" y2="140" stroke="#fef5f5" stroke-width="1"/>
<line x1="240" y1="0" x2="240" y2="140" stroke="#fef5f5" stroke-width="1"/>
<line x1="250" y1="0" x2="250" y2="140" stroke="#fde8e8" stroke-width="1"/>
<line x1="260" y1="0" x2="260" y2="140" stroke="#fef5f5" stroke-width="1"/>
<line x1="270" y1="0" x2="270" y2="140" stroke="#fef5f5" stroke-width="1"/>
<line x1="280" y1="0" x2="280" y2="140" stroke="#fef5f5" stroke-width="1"/>
<line x1="290" y1="0" x2="290" y2="140" stroke="#fef5f5" stroke-width="1"/>
<line x1="300" y1="0" x2="300" y2="140" stroke="#fde8e8" stroke-width="1"/>
<line x1="310" y1="0" x2="310" y2="140" stroke="#fef5f5" stroke-width="1"/>
<line x1="320" y1="0" x2="320" y2="140" stroke="#fef5f5" stroke-width="1"/>
<line x1="330" y1="0" x2="330" y2="140" stroke="#fef5f5" stroke-width="1"/>
<line x1="340" y1="0" x2="340" y2="140" stroke="#fef5f5" stroke-width="1"/>
<line x1="350" y1="0" x2="350" y2="140" stroke="#fde8e8" stroke-width="1"/>
<line x1="360" y1="0" x2="360" y2="140" stroke="#fef5f5" stroke-width="1"/>
<line x1="370" y1="0" x2="370" y2="140" stroke="#fef5f5" stroke-width="1"/>
<line x1="380" y1="0" x2="380" y2="140" stroke="#fef5f5" stroke-width="1"/>
<line x1="390" y1="0" x2="390" y2="140" stroke="#fef5f5" stroke-width="1"/>
<line x1="400" y1="0" x2="400" y2="140" stroke="#fde8e8" stroke-width="1"/>
<line x1="410" y1="0" x2="410" y2="140" stroke="#fef5f5" stroke-width="1"/>
<line x1="420" y1="0" x2="420" y2="140" stroke="#fef5f5" stroke-width="1"/>
<line x1="430" y1="0" x2="430" y2="140" stroke="#fef5f5" stroke-width="1"/>
<line x1="440" y1="0" x2="440" y2="140" stroke="#fef5f5" stroke-width="1"/>
<line x1="450" y1="0" x2="450" y2="140" stroke="#fde8e8" stroke-width="1"/>
<line x1="460" y1="0" x2="460" y2="140" stroke="#fef5f5" stroke-width="1"/>
<line x1="470" y1="0" x2="470" y2="140" stroke="#fef5f5" stroke-width="1"/>
<line x1="480" y1="0" x2="480" y2="140" stroke="#fef5f5" stroke-width="1"/>
<line x1="490" y1="0" x2="490" y2="140" stroke="#fef5f5" stroke-width="1"/>
<line x1="500" y1="0" x2="500" y2="140" stroke="#fde8e8" stroke-width="1"/>
<line x1="510" y1="0" x2="510" y2="140" stroke="#fef5f5" stroke-width="1"/>
<line x1="520" y1="0" x2="520" y2="140" stroke="#fef5f5" stroke-width="1"/>
<line x1="530" y1="0" x2="530" y2="140" stroke="#fef5f5" stroke-width="1"/>
<line x1="540" y1="0" x2="540" y2="140" stroke="#fef5f5" stroke-width="1"/>
<line x1="550" y1="0" x2="550" y2="140" stroke="#fde8e8" stroke-width="1"/>
<line x1="560" y1="0" x2="560" y2="140" stroke="#fef5f5" stroke-width="1"/>
<line x1="570" y1="0" x2="570" y2="140" stroke="#fef5f5" stroke-width="1"/>
<line x1="580" y1="0" x2="580" y2="140" stroke="#fef5f5" stroke-width="1"/>
<line x1="590" y1="0" x2="590" y2="140" stroke="#fef5f5" stroke-width="1"/>
<line x1="600" y1="0" x2="600" y2="140" stroke="#fde8e8" stroke-width="1"/>
<line x1="610" y1="0" x2="610" y2="140" stroke="#fef5f5" stroke-width="1"/>
<line x1="620" y1="0" x2="620" y2="140" stroke="#fef5f5" stroke-width="1"/>
<line x1="630" y1="0" x2="630" y2="140" stroke="#fef5f5" stroke-width="1"/>
<line x1="640" y1="0" x2="640" y2="140" stroke="#fef5f5" stroke-width="1"/>
<line x1="650" y1="0" x2="650" y2="140" stroke="#fde8e8" stroke-width="1"/>
<line x1="660" y1="0" x2="660" y2="140" stroke="#fef5f5" stroke-width="1"/>
<line x1="670" y1="0" x2="670" y2="140" stroke="#fef5f5" stroke-width="1"/>
<line x1="680" y1="0" x2="680" y2="140" stroke="#fef5f5" stroke-width="1"/>
<line x1="690" y1="0" x2="690" y2="140" stroke="#fef5f5" stroke-width="1"/>
<line x1="700" y1="0" x2="700" y2="140" stroke="#fde8e8" stroke-width="1"/>
<line x1="710" y1="0" x2="710" y2="140" stroke="#fef5f5" stroke-width="1"/>
<line x1="720" y1="0" x2="720" y2="140" stroke="#fef5f5" stroke-width="1"/>
<line x1="730" y1="0" x2="730" y2="140" stroke="#fef5f5" stroke-width="1"/>
<line x1="740" y1="0" x2="740" y2="140" stroke="#fef5f5" stroke-width="1"/>
<line x1="750" y1="0" x2="750" y2="140" stroke="#fde8e8" stroke-width="1"/>
<line x1="760" y1="0" x2="760" y2="140" stroke="#fef5f5" stroke-width="1"/>
<line x1="770" y1="0" x2="770" y2="140" stroke="#fef5f5" stroke-width="1"/>
<line x1="780" y1="0" x2="780" y2="140" stroke="#fef5f5" stroke-width="1"/>
<line x1="790" y1="0" x2="790" y2="140" stroke="#fef5f5" stroke-width="1"/>
<line x1="0" y1="0" x2="800" y2="0" stroke="#fde8e8" stroke-width="1"/>
<line x1="0" y1="10" x2="800" y2="10" stroke="#fef5f5" stroke-width="1"/>
<line x1="0" y1="20" x2="800" y2="20" stroke="#fef5f5" stroke-width="1"/>
<line x1="0" y1="30" x2="800" y2="30" stroke="#fef5f5" stroke-width="1"/>
<line x1="0" y1="40" x2="800" y2="40" stroke="#fef5f5" stroke-width="1"/>
<line x1="0" y1="50" x2="800" y2="50" stroke="#fde8e8" stroke-width="1"/>
<line x1="0" y1="60" x2="800" y2="60" stroke="#fef5f5" stroke-width="1"/>
<line x1="0" y1="70" x2="800" y2="70" stroke="#fef5f5" stroke-width="1"/>
<line x1="0" y1="80" x2="800" y2="80" stroke="#fef5f5" stroke-width="1"/>
<line x1="0" y1="90" x2="800" y2="90" stroke="#fef5f5" stroke-width="1"/>
<line x1="0" y1="100" x2="800" y2="100" stroke="#fde8e8" stroke-width="1"/>
<line x1="0" y1="110" x2="800" y2="110" stroke="#fef5f5" stroke-width="1"/>
<line x1="0" y1="120" x2="800" y2="120" stroke="#fef5f5" stroke-width="1"/>
<line x1="0" y1="130" x2="800" y2="130" stroke="#fef5f5" stroke-width="1"/>
  <polyline fill="none" stroke="#b91c1c" stroke-width="2.2" stroke-linejoin="round" points="20,70 24,70 28,70 32,70 36,70 38,70 42,70 46,70 50,70 50,74 54,112 78,55.3 84,70 84,70 88,70 92,70 96,70 100,70 104,70 104,70 114,70 126,70 126,70 130,70 134,70 138,70 142,70 146,70 150,70 158,70 162,70 166,70 170,70 174,70 176,70 180,70 184,70 188,70 188,74 192,112 216,55.3 222,70 222,70 226,70 230,70 234,70 238,70 242,70 242,70 252,70 264,70 264,70 268,70 272,70 276,70 280,70 284,70 288,70 296,70 300,70 304,70 308,70 312,70 314,70 318,70 322,70 326,70 326,74 330,112 354,55.3 360,70 360,70 364,70 368,70 372,70 376,70 380,70 380,70 390,70 402,70 402,70 406,70 410,70 414,70 418,70 422,70 426,70 434,70 438,70 442,70 446,70 450,70 452,70 456,70 460,70 464,70 464,74 468,112 492,55.3 498,70 498,70 502,70 506,70 510,70 514,70 518,70 518,70 528,70 540,70 540,70 544,70 548,70 552,70 556,70 560,70 564,70 572,70 576,70 580,70 584,70 588,70 590,70 594,70 598,70 602,70 602,74 606,112 630,55.3 636,70 636,70 640,70 644,70 648,70 652,70 656,70 656,70 666,70 678,70 678,70 682,70 686,70 690,70 694,70 698,70 702,70 710,70 714,70 718,70 722,70 726,70 728,70 732,70 736,70 740,70 740,74 744,112 768,55.3 774,70 774,70 778,70 782,70 786,70 790,70 794,70 794,70 804,70 816,70 816,70 820,70 824,70 828,70 832,70 836,70 840,70 848,70 852,70 856,70 860,70 864,70 866,70 870,70 874,70 878,70 878,74 882,112 906,55.3 912,70 912,70 916,70 920,70 924,70 928,70 932,70 932,70 942,70 954,70 954,70 958,70 962,70 966,70 970,70 974,70 978,70 986,70 990,70 994,70 998,70 1002,70 1004,70 1008,70 1012,70 1016,70 1016,74 1020,112 1044,55.3 1050,70 1050,70 1054,70 1058,70 1062,70 1066,70 1070,70 1070,70 1080,70 1092,70 1092,70 1096,70 1100,70 1104,70 1108,70 1112,70 1116,70"/>
  
  <text x="12" y="18" font-family="Manrope, sans-serif" font-size="13" font-weight="700" fill="#1a2a22">Tachycardie ventriculaire</text>
  <text x="12" y="34" font-family="Manrope, sans-serif" font-size="11" fill="#5a6a60">QRS larges réguliers ~160/min · dissociation AV possible</text>
</svg>